<svg width="350" height="350" viewBox="0 0 350 350" fill="none" xmlns="http://www.w3.org/2000/svg">
<rect x="1" y="1" width="348" height="348" rx="9" fill="#1A1E34"/>
<path d="M109 249.2C94.2 249.2 82.4667 245.133 73.8 237C65.2667 228.733 61 217.667 61 203.8H86C86 211.133 88.0667 216.867 92.2 221C96.3333 225.133 101.933 227.2 109 227.2C116.067 227.2 121.667 225.2 125.8 221.2C129.933 217.067 132 211.333 132 204V124.2H98V101H157V204C157 218 152.667 229.067 144 237.2C135.467 245.2 123.8 249.2 109 249.2ZM189.922 247V101H233.322C243.189 101 251.722 102.867 258.922 106.6C266.255 110.333 271.922 115.6 275.922 122.4C279.922 129.2 281.922 137.267 281.922 146.6V201.2C281.922 210.4 279.922 218.467 275.922 225.4C271.922 232.2 266.255 237.533 258.922 241.4C251.722 245.133 243.189 247 233.322 247H189.922ZM214.922 224H233.322C240.522 224 246.255 222 250.522 218C254.789 213.867 256.922 208.267 256.922 201.2V146.6C256.922 139.667 254.789 134.2 250.522 130.2C246.255 126.067 240.522 124 233.322 124H214.922V224Z" fill="#DEF7FF"/>
<rect x="1" y="1" width="348" height="348" rx="9" stroke="white" stroke-width="2"/>
</svg>
